<svg width="370" height="366" viewBox="0 0 370 366" fill="none" xmlns="http://www.w3.org/2000/svg">
<rect width="201.695" height="145.871" rx="15" transform="matrix(0.83581 0.549019 -0.549057 0.835785 158.335 54.7978)" fill="#686767"/>
<rect width="201.695" height="3.17111" transform="matrix(0.83581 0.549019 -0.549057 0.835785 136.568 87.926)" fill="#595959"/>
<rect width="201.694" height="3.17111" transform="matrix(0.83581 0.549019 -0.549057 0.835785 127.864 101.178)" fill="#595959"/>
<ellipse cx="4.11624" cy="3.17113" rx="4.11624" ry="3.17113" transform="matrix(0.83581 0.549019 -0.549057 0.835785 149.563 79.3893)" fill="#7D7D7D"/>
<ellipse cx="4.11616" cy="3.17109" rx="4.11616" ry="3.17109" transform="matrix(0.835809 0.549021 -0.549053 0.835787 297.501 176.564)" fill="#7D7D7D"/>
<ellipse cx="4.1162" cy="3.1711" rx="4.1162" ry="3.1711" transform="matrix(0.83581 0.549019 -0.549057 0.835785 129.541 109.869)" fill="#7D7D7D"/>
<ellipse cx="4.11624" cy="3.17113" rx="4.11624" ry="3.17113" transform="matrix(0.83581 0.549019 -0.549057 0.835785 277.478 207.043)" fill="#7D7D7D"/>
<rect width="36.3375" height="89.6798" rx="10" transform="matrix(0.996796 0.0799226 0.163385 0.986556 227.752 187.587)" fill="#D6D6D6"/>
<ellipse cx="12.4313" cy="11.4298" rx="12.4313" ry="11.4298" transform="matrix(0.996796 0.0799215 0.163386 0.986556 252.589 258.049)" fill="url(#paint0_radial_2208_1156)"/>
<rect width="35.732" height="91.4158" rx="10" transform="matrix(-0.409934 -0.912109 -0.985759 0.168127 164.943 148.486)" fill="#D6D6D6"/>
<ellipse cx="12.2241" cy="11.651" rx="12.2241" ry="11.651" transform="matrix(-0.409934 -0.912109 -0.985759 0.168128 90.0234 148.901)" fill="url(#paint1_radial_2208_1156)"/>
<path d="M203.288 256.019L115.559 198.392L77.5212 256.294C74.4888 260.91 75.7727 267.109 80.3887 270.142L97.2162 281.195C101.832 284.227 108.032 282.943 111.065 278.327L128.377 251.975C131.409 247.359 137.61 246.075 142.226 249.107L144.861 250.838C149.478 253.871 150.761 260.071 147.729 264.686L130.417 291.039C127.385 295.655 128.668 301.855 133.284 304.887L151.402 316.788C156.018 319.82 162.218 318.536 165.251 313.921L203.288 256.019Z" fill="#D6D6D6"/>
<rect width="133.777" height="99.8899" transform="matrix(0.83581 0.549019 -0.549057 0.835785 156.621 109.647)" fill="#E1E1E1"/>
<rect width="125.545" height="28.54" transform="matrix(0.83581 0.549019 -0.549057 0.835785 113.922 182.141)" fill="#E1E1E1"/>
<rect width="10.2905" height="99.89" transform="matrix(0.83581 0.549019 -0.549056 0.835785 173.824 120.946)" fill="url(#paint2_linear_2208_1156)"/>
<rect width="10.2906" height="99.8899" transform="matrix(0.83581 0.549018 -0.549057 0.835785 239.19 163.884)" fill="url(#paint3_linear_2208_1156)"/>
<rect width="133.777" height="3.17111" transform="matrix(0.83581 0.549019 -0.549057 0.835785 103.517 190.483)" fill="#9A9A9A"/>
<rect width="14.4068" height="25.3689" rx="7.2034" transform="matrix(0.835811 0.549018 -0.549058 0.835784 290.197 149.964)" fill="#D6D6D6"/>
<rect width="14.4067" height="25.3689" rx="7.20337" transform="matrix(0.83581 0.549019 -0.549056 0.835785 166.343 68.6075)" fill="#D6D6D6"/>
<path d="M288.183 163.817C270.982 190.002 229.402 193.2 195.263 170.775C161.123 148.349 147.546 108.921 164.748 82.7363C181.949 56.5515 223.529 53.3539 257.668 75.7793C291.808 98.2046 305.385 137.633 288.183 163.817Z" fill="#D6D6D6" stroke="#E1E1E1" stroke-width="0.5"/>
<path fill-rule="evenodd" clip-rule="evenodd" d="M287.428 165.218C269.144 189.16 229.043 191.365 195.997 169.658C162.95 147.95 149.049 110.273 163.763 83.9852C163.124 84.8218 162.512 85.6848 161.928 86.5743C144.619 112.922 158.313 152.493 192.514 174.959C226.716 197.424 268.473 194.278 285.781 167.93C286.365 167.041 286.914 166.136 287.428 165.218Z" fill="#DDDDDD"/>
<path fill-rule="evenodd" clip-rule="evenodd" d="M283.946 170.519C265.662 194.461 225.561 196.666 192.514 174.959C159.467 153.252 145.567 115.574 160.281 89.2865C159.642 90.123 159.03 90.986 158.445 91.8755C141.137 118.223 154.831 157.794 189.032 180.26C223.233 202.726 264.99 199.579 282.299 173.231C282.883 172.342 283.432 171.438 283.946 170.519Z" fill="#D6D6D6"/>
<path d="M292.378 143.808C279.135 118.985 222.38 79.8064 187.913 68.5488C164.958 82.8744 154.944 107.151 169.847 135.408C178.122 151.099 187.901 159.373 204.188 169.348C216.237 176.728 224.149 180.694 237.348 182.594C268.336 187.052 290.563 159.689 292.378 143.808Z" fill="black"/>
<rect width="4.01718" height="1.64784" rx="0.823921" transform="matrix(0.952999 0.302975 -0.139408 0.990235 215.233 188.691)" fill="#C4C4C4"/>
<rect width="2.00866" height="1.64777" rx="0.823885" transform="matrix(0.952999 0.302975 -0.139409 0.990235 223.854 190.56)" fill="#C4C4C4"/>
<mask id="mask0_2208_1156" style="mask-type:alpha" maskUnits="userSpaceOnUse" x="162" y="68" width="131" height="116">
<path d="M292.378 143.809C279.135 118.986 222.38 79.8079 187.913 68.5502C164.958 82.8758 154.944 107.152 169.847 135.41C178.122 151.1 187.901 159.374 204.188 169.349C216.237 176.729 224.149 180.696 237.348 182.595C268.336 187.053 290.563 159.691 292.378 143.809Z" fill="black"/>
</mask>
<g mask="url(#mask0_2208_1156)">
<rect width="19.1552" height="97.2517" transform="matrix(0.474943 0.880016 -0.968447 0.24922 240.044 80.1096)" fill="#484848"/>
<rect width="10.8085" height="102.523" transform="matrix(0.474943 0.880016 -0.968447 0.24922 262.8 105.813)" fill="#484848"/>
</g>
<ellipse cx="13.3777" cy="10.3061" rx="13.3777" ry="10.3061" transform="matrix(0.83581 0.549019 -0.549056 0.835785 190.467 76.8662)" fill="#828282" fill-opacity="0.5"/>
<ellipse cx="7.2034" cy="5.54943" rx="7.2034" ry="5.54943" transform="matrix(0.835811 0.549017 -0.549059 0.835784 207.67 88.1657)" fill="#828282" fill-opacity="0.5"/>
<ellipse cx="5.14525" cy="3.96389" rx="5.14525" ry="3.96389" transform="matrix(0.835809 0.54902 -0.549055 0.835787 181.763 90.1182)" fill="#828282" fill-opacity="0.5"/>
<ellipse cx="5.14527" cy="3.96389" rx="5.14527" ry="3.96389" transform="matrix(0.83581 0.549019 -0.549056 0.835786 213.847 63.768)" fill="#BC0D0D"/>
<ellipse cx="5.1453" cy="3.9639" rx="5.1453" ry="3.9639" transform="matrix(0.835811 0.549018 -0.549059 0.835784 236.251 70.8964)" fill="#BC0D0D"/>
<rect width="55.5689" height="22.1978" rx="5" transform="matrix(0.83581 0.549019 -0.549056 0.835785 159.728 172.391)" fill="#273AE7"/>
<path d="M187.23 194.251L174.575 194.238L182 197.929L164.763 198.463" stroke="#D2CB15"/>
<defs>
<radialGradient id="paint0_radial_2208_1156" cx="0" cy="0" r="1" gradientUnits="userSpaceOnUse" gradientTransform="translate(15.3 14.0674) rotate(-158.493) scale(7.19469 6.7777)">
<stop stop-color="white"/>
<stop offset="1" stop-color="#DDDDDD"/>
</radialGradient>
<radialGradient id="paint1_radial_2208_1156" cx="0" cy="0" r="1" gradientUnits="userSpaceOnUse" gradientTransform="translate(15.0451 14.3397) rotate(-157.781) scale(7.11018 6.87452)">
<stop stop-color="white"/>
<stop offset="1" stop-color="#DDDDDD"/>
</radialGradient>
<linearGradient id="paint2_linear_2208_1156" x1="5.14527" y1="0" x2="5.14527" y2="99.89" gradientUnits="userSpaceOnUse">
<stop stop-color="#3BB094"/>
<stop offset="1" stop-color="#232030"/>
</linearGradient>
<linearGradient id="paint3_linear_2208_1156" x1="5.14528" y1="0" x2="5.14528" y2="99.8899" gradientUnits="userSpaceOnUse">
<stop stop-color="#3BB094"/>
<stop offset="1" stop-color="#232030"/>
</linearGradient>
</defs>
</svg>
